<svg width="71" height="70" viewBox="0 0 71 70" fill="none" xmlns="http://www.w3.org/2000/svg">
<path d="M23.8333 26.25V51.0417C23.8325 51.7851 23.5479 52.5001 23.0375 53.0407C22.5272 53.5812 21.8297 53.9065 21.0876 53.9501C20.3455 53.9936 19.6147 53.7522 19.0447 53.2751C18.4746 52.7979 18.1082 52.1211 18.0204 51.3829L18 51.0417V26.25C18.0008 25.5066 18.2855 24.7916 18.7958 24.251C19.3061 23.7104 20.0036 23.3851 20.7457 23.3416C21.4879 23.298 22.2186 23.5395 22.7887 24.0166C23.3587 24.4937 23.7251 25.1706 23.8129 25.9088L23.8333 26.25ZM37.5621 6.68792L43.3954 12.5213C43.9185 13.0461 44.2222 13.7504 44.2448 14.4911C44.2675 15.2318 44.0073 15.9533 43.5172 16.5091C43.0271 17.065 42.3438 17.4134 41.6061 17.4837C40.8684 17.5539 40.1316 17.3408 39.5454 16.8875L39.2713 16.6454L35.5 12.8742L31.7287 16.6454C31.2039 17.1685 30.4996 17.4722 29.7589 17.4948C29.0182 17.5175 28.2967 17.2573 27.7409 16.7672C27.185 16.2771 26.8366 15.5938 26.7663 14.8561C26.6961 14.1184 26.9092 13.3816 27.3625 12.7954L27.6046 12.5213L33.4379 6.68792C33.9401 6.18574 34.6084 5.88406 35.3172 5.83949C36.026 5.79492 36.7267 6.01052 37.2879 6.44584L37.5621 6.68792V6.68792ZM38.4167 26.25L38.4196 59.7917C38.4188 60.5351 38.1341 61.2501 37.6238 61.7907C37.1134 62.3312 36.416 62.6565 35.6739 62.7001C34.9317 62.7436 34.201 62.5022 33.6309 62.0251C33.0608 61.5479 32.6945 60.8711 32.6067 60.1329L32.5833 59.7917V26.25C32.5842 25.5066 32.8688 24.7916 33.3791 24.251C33.8895 23.7104 34.5869 23.3851 35.3291 23.3416C36.0712 23.298 36.8019 23.5395 37.372 24.0166C37.9421 24.4937 38.3084 25.1706 38.3963 25.9088L38.4167 26.25ZM53 26.25V51.0417C52.9992 51.7851 52.7145 52.5001 52.2042 53.0407C51.6939 53.5812 50.9964 53.9065 50.2543 53.9501C49.5121 53.9936 48.7814 53.7522 48.2113 53.2751C47.6413 52.7979 47.2749 52.1211 47.1871 51.3829L47.1667 51.0417V26.25C47.1675 25.5066 47.4521 24.7916 47.9625 24.251C48.4728 23.7104 49.1703 23.3851 49.9124 23.3416C50.6545 23.298 51.3853 23.5395 51.9553 24.0166C52.5254 24.4937 52.8918 25.1706 52.9796 25.9088L53 26.25Z" fill="#2D1D90"/>
</svg>
