<svg width="111" height="110" viewBox="0 0 111 110" fill="none" xmlns="http://www.w3.org/2000/svg">
<g filter="url(#filter0_d_1082_4632)">
<ellipse cx="55.5512" cy="49.4628" rx="25.4018" ry="24.537" fill="white"/>
</g>
<g clip-path="url(#clip0_1082_4632)">
<path d="M49.785 50.2312H52.458V60.8612C52.458 61.0711 52.634 61.2411 52.8513 61.2411H57.3836C57.6009 61.2411 57.7769 61.0711 57.7769 60.8612V50.2813H60.8498C61.0496 50.2813 61.2178 50.1365 61.2406 49.9448L61.7073 46.0314C61.7201 45.9237 61.6848 45.8159 61.6102 45.7351C61.5356 45.6543 61.4288 45.608 61.3166 45.608H57.7771V43.1549C57.7771 42.4154 58.1893 42.0404 59.0024 42.0404C59.1183 42.0404 61.3166 42.0404 61.3166 42.0404C61.5339 42.0404 61.71 41.8702 61.71 41.6605V38.0683C61.71 37.8584 61.5339 37.6884 61.3166 37.6884H58.1272C58.1047 37.6873 58.0548 37.6855 57.9811 37.6855C57.4277 37.6855 55.5042 37.7905 53.9847 39.1407C52.3011 40.6371 52.5352 42.4286 52.5911 42.7393V45.6079H49.7849C49.5676 45.6079 49.3916 45.7779 49.3916 45.9878V49.8513C49.3916 50.0611 49.5677 50.2312 49.785 50.2312Z" fill="#385C8E"/>
</g>
<defs>
<filter id="filter0_d_1082_4632" x="0.149414" y="0.925781" width="110.804" height="109.074" filterUnits="userSpaceOnUse" color-interpolation-filters="sRGB">
<feFlood flood-opacity="0" result="BackgroundImageFix"/>
<feColorMatrix in="SourceAlpha" type="matrix" values="0 0 0 0 0 0 0 0 0 0 0 0 0 0 0 0 0 0 127 0" result="hardAlpha"/>
<feOffset dy="6"/>
<feGaussianBlur stdDeviation="15"/>
<feColorMatrix type="matrix" values="0 0 0 0 0 0 0 0 0 0 0 0 0 0 0 0 0 0 0.12 0"/>
<feBlend mode="normal" in2="BackgroundImageFix" result="effect1_dropShadow_1082_4632"/>
<feBlend mode="normal" in="SourceGraphic" in2="effect1_dropShadow_1082_4632" result="shape"/>
</filter>
<clipPath id="clip0_1082_4632">
<rect width="24.3857" height="23.5556" fill="white" transform="translate(43.3584 37.6855)"/>
</clipPath>
</defs>
</svg>
