<svg width="71" height="70" viewBox="0 0 71 70" fill="none" xmlns="http://www.w3.org/2000/svg">
<path d="M31.664 25.1895C33.78 23.6022 36.3548 22.746 39 22.75C41.751 22.75 44.292 23.66 46.336 25.1895L42.556 28.9695C41.4792 28.3329 40.2509 27.998 39 28C37.705 28 36.487 28.3535 35.444 28.9695L31.664 25.1895ZM46 35C46 33.705 45.6465 32.487 45.0305 31.444L48.8105 27.664C50.3435 29.708 51.25 32.249 51.25 35C51.25 37.751 50.34 40.292 48.8105 42.336L45.0305 38.556C45.6671 37.4792 46.002 36.2509 46 35ZM39 42C40.295 42 41.513 41.6465 42.556 41.0305L46.336 44.8105C44.22 46.3978 41.6452 47.254 39 47.25C36.249 47.25 33.708 46.34 31.664 44.8105L35.444 41.0305C36.5208 41.6671 37.7491 42.002 39 42ZM32 35C32 36.295 32.3535 37.513 32.9695 38.556L29.1895 42.336C27.6022 40.22 26.746 37.6452 26.75 35C26.75 32.249 27.66 29.708 29.1895 27.664L32.9695 31.444C32.3329 32.5208 31.998 33.7491 32 35ZM21.8535 17.5C19.522 19.7786 17.6702 22.501 16.4073 25.5065C15.1444 28.512 14.4959 31.7399 14.5 35C14.5 38.759 15.347 42.315 16.859 45.5H12.75C12.2859 45.5 11.8408 45.6844 11.5126 46.0126C11.1844 46.3408 11 46.7859 11 47.25C11 47.7141 11.1844 48.1592 11.5126 48.4874C11.8408 48.8156 12.2859 49 12.75 49H18.8925C19.7675 50.26 20.7615 51.429 21.8535 52.5H5.75C5.28587 52.5 4.84075 52.6844 4.51256 53.0126C4.18437 53.3408 4 53.7859 4 54.25C4 54.7141 4.18437 55.1592 4.51256 55.4874C4.84075 55.8156 5.28587 56 5.75 56H26.372C30.0894 58.2339 34.3332 59.441 38.6699 59.4979C43.0065 59.5548 47.2805 58.4596 51.0553 56.324C54.8301 54.1884 57.9703 51.0891 60.1553 47.3427C62.3402 43.5963 63.4914 39.337 63.4914 35C63.4914 30.663 62.3402 26.4037 60.1553 22.6573C57.9703 18.9109 54.8301 15.8116 51.0553 13.676C47.2805 11.5404 43.0065 10.4452 38.6699 10.5021C34.3332 10.559 30.0894 11.7661 26.372 14H9.25C8.78587 14 8.34075 14.1844 8.01256 14.5126C7.68437 14.8408 7.5 15.2859 7.5 15.75C7.5 16.2141 7.68437 16.6592 8.01256 16.9874C8.34075 17.3156 8.78587 17.5 9.25 17.5H21.8535ZM39 31.5C39.9283 31.5 40.8185 31.8687 41.4749 32.5251C42.1312 33.1815 42.5 34.0717 42.5 35C42.5 35.9283 42.1312 36.8185 41.4749 37.4749C40.8185 38.1313 39.9283 38.5 39 38.5C38.0717 38.5 37.1815 38.1313 36.5251 37.4749C35.8687 36.8185 35.5 35.9283 35.5 35C35.5 34.0717 35.8687 33.1815 36.5251 32.5251C37.1815 31.8687 38.0717 31.5 39 31.5Z" fill="#2D1D90"/>
</svg>
