<svg width="112" height="110" viewBox="0 0 112 110" fill="none" xmlns="http://www.w3.org/2000/svg">
<g filter="url(#filter0_d_1082_4640)">
<ellipse cx="56.3832" cy="49.4628" rx="25.4018" ry="24.537" fill="white"/>
</g>
<g clip-path="url(#clip0_1082_4640)">
<path d="M49.5411 47.2693C50.4887 44.4957 53.187 42.5037 56.3831 42.5037C58.1012 42.5037 59.653 43.0926 60.8723 44.0563L64.4193 40.63C62.2579 38.8098 59.4868 37.6855 56.3831 37.6855C51.5772 37.6855 47.4394 40.3339 45.4502 44.2124L49.5411 47.2693Z" fill="#EA4335"/>
<path d="M60.4894 55.3648C59.3821 56.0555 57.975 56.4232 56.3837 56.4232C53.1999 56.4232 50.51 54.4464 49.5527 51.6895L45.4482 54.6998C47.435 58.5851 51.5727 61.2414 56.3837 61.2414C59.3637 61.2414 62.2113 60.2181 64.3438 58.2965L60.4894 55.3648Z" fill="#34A853"/>
<path d="M64.3429 58.2966C66.5732 56.287 68.0214 53.2951 68.0214 49.4637C68.0214 48.7677 67.9106 48.0182 67.7443 47.3223H56.3828V51.8728H62.9226C62.5999 53.403 61.7337 54.5882 60.4885 55.3649L64.3429 58.2966Z" fill="#4A90E2"/>
<path d="M49.5522 51.6897C49.3097 50.9913 49.1784 50.2429 49.1784 49.4638C49.1784 48.6965 49.3058 47.959 49.5413 47.2697L45.4503 44.2129C44.634 45.7935 44.1904 47.5748 44.1904 49.4638C44.1904 51.3478 44.6424 53.1249 45.4478 54.7L49.5522 51.6897Z" fill="#FBBC05"/>
</g>
<defs>
<filter id="filter0_d_1082_4640" x="0.981445" y="0.925781" width="110.804" height="109.074" filterUnits="userSpaceOnUse" color-interpolation-filters="sRGB">
<feFlood flood-opacity="0" result="BackgroundImageFix"/>
<feColorMatrix in="SourceAlpha" type="matrix" values="0 0 0 0 0 0 0 0 0 0 0 0 0 0 0 0 0 0 127 0" result="hardAlpha"/>
<feOffset dy="6"/>
<feGaussianBlur stdDeviation="15"/>
<feColorMatrix type="matrix" values="0 0 0 0 0 0 0 0 0 0 0 0 0 0 0 0 0 0 0.12 0"/>
<feBlend mode="normal" in2="BackgroundImageFix" result="effect1_dropShadow_1082_4640"/>
<feBlend mode="normal" in="SourceGraphic" in2="effect1_dropShadow_1082_4640" result="shape"/>
</filter>
<clipPath id="clip0_1082_4640">
<rect width="24.3857" height="23.5556" fill="white" transform="translate(44.1904 37.6855)"/>
</clipPath>
</defs>
</svg>
