<svg width="3068" height="537" viewBox="0 0 3068 537" fill="none" xmlns="http://www.w3.org/2000/svg">
<path d="M104.851 0H3068C3068 0 2440.01 255.108 2249 431C2057.99 606.892 509.307 516.503 169.79 482.978C-169.727 449.453 104.851 0 104.851 0Z" fill="#2D1D90"/>
<path d="M104.851 0H3068C3068 0 2440.01 255.108 2249 431C2057.99 606.892 509.307 516.503 169.79 482.978C-169.727 449.453 104.851 0 104.851 0Z" fill="#2D1D90" fill-opacity="0.2"/>
<path d="M792.5 233.5H1012.5C1029.62 233.5 1043.5 247.379 1043.5 264.5C1043.5 281.621 1029.62 295.5 1012.5 295.5H792.5V233.5Z" fill="#2D1D90" stroke="#2D1D90"/>
</svg>
