<svg width="45" height="45" viewBox="0 0 63 64" fill="none" xmlns="http://www.w3.org/2000/svg">
<path d="M38.0248 32.684C38.0248 29.2792 35.242 26.5087 31.8216 26.5087C28.4017 26.5087 25.619 29.2793 25.619 32.684C25.619 36.0896 28.4017 38.8596 31.8216 38.8596C35.242 38.8596 38.0248 36.0896 38.0248 32.684ZM47.2405 0.538086H15.7585C7.08489 0.538086 0.0283203 7.56397 0.0283203 16.1997V20.5635H23.1753C25.6178 18.8312 28.6008 17.8079 31.8216 17.8079C35.0425 17.8079 38.0259 18.8312 40.4685 20.5635H62.9706V16.1997C62.9706 7.56391 55.914 0.538086 47.2405 0.538086ZM53.611 15.4335C53.611 16.3905 52.8248 17.1737 51.8632 17.1737H46.4628C45.5014 17.1737 44.715 16.3905 44.715 15.4335V10.0563C44.715 9.09934 45.5013 8.31613 46.4628 8.31613H51.8632C52.8247 8.31613 53.611 9.09922 53.611 10.0563V15.4335ZM46.7637 32.684C46.7637 40.8875 40.0603 47.5603 31.8216 47.5603C23.5826 47.5603 16.8799 40.8875 16.8799 32.684C16.8799 30.4255 17.3908 28.2837 18.2994 26.3639H0.0283203V47.8005C0.0283203 56.4369 7.08489 63.4621 15.7585 63.4621H47.2405C55.9141 63.4621 62.9707 56.4368 62.9707 47.8005V26.3639H45.3442C46.2527 28.2837 46.7637 30.4255 46.7637 32.684Z" fill="white"/>
</svg>
