<svg width="45" height="45" viewBox="0 0 56 56" fill="none" xmlns="http://www.w3.org/2000/svg">
<path d="M51.1197 13.3799C42.9597 0.799877 26.2997 -2.94012 13.3797 4.87988C0.799738 12.6999 -3.28026 29.6999 4.87974 42.2799L5.55974 43.2999L2.83974 53.4999L13.0397 50.7799L14.0597 51.4599C18.4797 53.8399 23.2397 55.1999 27.9997 55.1999C33.0997 55.1999 38.1997 53.8399 42.6197 51.1199C55.1997 42.9599 58.9397 26.2999 51.1197 13.3799ZM43.9797 39.5599C42.6197 41.5999 40.9197 42.9599 38.5397 43.2999C37.1797 43.2999 35.4797 43.9799 28.6797 41.2599C22.8997 38.5399 18.1397 34.1199 14.7397 29.0199C12.6997 26.6399 11.6797 23.5799 11.3397 20.5199C11.3397 17.7999 12.3597 15.4199 14.0597 13.7199C14.7397 13.0399 15.4197 12.6999 16.0997 12.6999H17.7997C18.4797 12.6999 19.1597 12.6999 19.4997 14.0599C20.1797 15.7599 21.8797 19.8399 21.8797 20.1799C22.2197 20.5199 22.2197 21.1999 21.8797 21.5399C22.2197 22.2199 21.8797 22.8999 21.5397 23.2399C21.1997 23.5799 20.8597 24.2599 20.5197 24.5999C19.8397 24.9399 19.4997 25.6199 19.8397 26.2999C21.1997 28.3399 22.8997 30.3799 24.5997 32.0799C26.6397 33.7799 28.6797 35.1399 31.0597 36.1599C31.7397 36.4999 32.4197 36.4999 32.7597 35.8199C33.0997 35.1399 34.7997 33.4399 35.4797 32.7599C36.1597 32.0799 36.4997 32.0799 37.1797 32.4199L42.6197 35.1399C43.2997 35.4799 43.9797 35.8199 44.3197 36.1599C44.6597 37.1799 44.6597 38.5399 43.9797 39.5599Z" fill="white"/>
</svg>
