<svg xmlns="http://www.w3.org/2000/svg" viewBox="0 0 43 47"><defs><style>.cls-1{fill:#fff;}</style></defs><g id="Layer_2" data-name="Layer 2"><g id="Layer_1-2" data-name="Layer 1"><path class="cls-1" d="M39.88,46.88,29.58,34.14C14.91,40.93,6.43,37.58,0,22.94V14C2.83,7.49,7.2,2.55,14,0h8C32.75,5.11,37.2,11.57,35.82,21.31c-.51,3.62-2.35,7.05-3.78,11.13C35.43,36,39.15,40,42.88,43.88,43.37,46.38,42.38,47.37,39.88,46.88Zm-22-12.68c8.35.09,14.9-6.53,15-15.17C33,10.59,26.36,3.46,18.25,3.32S3.31,10.23,3.17,18.65A15.13,15.13,0,0,0,17.89,34.2Z"/></g></g></svg>