<svg width="45" height="45" viewBox="0 0 60 49" fill="none" xmlns="http://www.w3.org/2000/svg">
<path d="M52.6525 7.94956C55.1924 6.43115 57.0929 4.04023 57.999 1.22323C55.6124 2.63939 53.0012 3.63693 50.2782 4.17273C48.4417 2.23005 46.0173 0.945332 43.3786 0.516601C40.7399 0.0878697 38.0334 0.538931 35.6763 1.80025C33.3193 3.06158 31.4425 5.06314 30.3354 7.4964C29.2282 9.92966 28.9521 12.6595 29.5495 15.2652C24.7155 15.0225 19.9866 13.766 15.6697 11.5773C11.3527 9.38858 7.54428 6.31653 4.49154 2.56056C2.93906 5.23836 2.464 8.40667 3.16285 11.422C3.86169 14.4374 5.68205 17.0737 8.25421 18.7956C6.32389 18.7335 4.43637 18.2109 2.74904 17.2712V17.4242C2.74959 20.232 3.72125 22.9531 5.49926 25.1262C7.27726 27.2992 9.75215 28.7904 12.5042 29.3469C10.7137 29.834 8.83563 29.9057 7.01321 29.5566C7.79161 31.9715 9.30455 34.0831 11.3409 35.5968C13.3772 37.1104 15.8353 37.9505 18.372 37.9999C14.0649 41.3804 8.74573 43.2137 3.27038 43.2047C2.29854 43.2047 1.32954 43.1481 0.366211 43.0376C5.92638 46.6103 12.3976 48.5068 19.0067 48.5002C23.5588 48.5315 28.0716 47.6579 32.2832 45.9303C36.4948 44.2026 40.321 41.6553 43.5398 38.4363C46.7585 35.2173 49.3055 31.3908 51.0328 27.1791C52.7601 22.9674 53.6334 18.4544 53.6017 13.9024C53.6017 13.3754 53.5904 12.8512 53.5649 12.3299C55.9462 10.609 58.0014 8.47702 59.6339 6.03423C57.4154 7.01753 55.0622 7.66314 52.6525 7.94956Z" fill="white"/>
</svg>
