<svg width="112" height="110" viewBox="0 0 112 110" fill="none" xmlns="http://www.w3.org/2000/svg">
<g filter="url(#filter0_d_1082_4636)">
<ellipse cx="56.2153" cy="49.4628" rx="25.4018" ry="24.537" fill="white"/>
</g>
<g clip-path="url(#clip0_1082_4636)">
<path d="M68.0203 41.9454C67.4785 42.1775 66.9161 42.3606 66.3389 42.4931C66.9749 41.9094 67.453 41.1793 67.7228 40.3643C67.7997 40.1317 67.5381 39.9305 67.3207 40.0551C66.5178 40.5151 65.653 40.8602 64.7501 41.0809C64.6977 41.0937 64.6437 41.1002 64.5895 41.1002C64.425 41.1002 64.2652 41.0412 64.1394 40.9341C63.1789 40.1164 61.9434 39.666 60.6608 39.666C60.1058 39.666 59.5454 39.7496 58.9953 39.9144C57.2906 40.4251 55.9752 41.7834 55.5626 43.4593C55.4077 44.0878 55.3658 44.717 55.4379 45.3292C55.4462 45.3996 55.4117 45.4487 55.3905 45.4717C55.3532 45.5121 55.3004 45.5352 55.2455 45.5352C55.2394 45.5352 55.2331 45.5349 55.2268 45.5344C51.4953 45.1995 48.1304 43.4629 45.7519 40.6447C45.6306 40.5009 45.398 40.5186 45.3014 40.6788C44.8356 41.4506 44.5895 42.3334 44.5895 43.2318C44.5895 44.6085 45.1621 45.9059 46.1567 46.8518C45.7384 46.756 45.3336 46.6051 44.9575 46.4033C44.7756 46.3057 44.5518 46.4312 44.5492 46.6322C44.5232 48.6774 45.7628 50.4973 47.6198 51.3168C47.5824 51.3176 47.545 51.318 47.5076 51.318C47.2132 51.318 46.9152 51.2906 46.6218 51.2364C46.4169 51.1986 46.2448 51.3864 46.3084 51.5783C46.9112 53.396 48.5314 54.7359 50.4704 55.0401C48.8612 56.0835 46.9872 56.634 45.0368 56.634L44.4288 56.6336C44.2414 56.6336 44.083 56.7516 44.0352 56.9269C43.9882 57.0995 44.0748 57.2816 44.2346 57.3714C46.4324 58.6069 48.9393 59.2599 51.4854 59.2599C53.7141 59.2599 55.7988 58.8326 57.6817 57.9901C59.4079 57.2177 60.9332 56.1136 62.2154 54.7085C63.4099 53.3995 64.3439 51.8885 64.9915 50.2173C65.6088 48.6244 65.9351 46.9246 65.9351 45.3019V45.2246C65.9351 44.964 66.0571 44.7188 66.2699 44.5519C67.0776 43.9185 67.781 43.1728 68.3603 42.3356C68.5133 42.1146 68.2721 41.8375 68.0203 41.9454Z" fill="#76A9EA"/>
</g>
<defs>
<filter id="filter0_d_1082_4636" x="0.813477" y="0.925781" width="110.804" height="109.074" filterUnits="userSpaceOnUse" color-interpolation-filters="sRGB">
<feFlood flood-opacity="0" result="BackgroundImageFix"/>
<feColorMatrix in="SourceAlpha" type="matrix" values="0 0 0 0 0 0 0 0 0 0 0 0 0 0 0 0 0 0 127 0" result="hardAlpha"/>
<feOffset dy="6"/>
<feGaussianBlur stdDeviation="15"/>
<feColorMatrix type="matrix" values="0 0 0 0 0 0 0 0 0 0 0 0 0 0 0 0 0 0 0.12 0"/>
<feBlend mode="normal" in2="BackgroundImageFix" result="effect1_dropShadow_1082_4636"/>
<feBlend mode="normal" in="SourceGraphic" in2="effect1_dropShadow_1082_4636" result="shape"/>
</filter>
<clipPath id="clip0_1082_4636">
<rect width="24.3857" height="23.5556" fill="white" transform="translate(44.0225 37.6855)"/>
</clipPath>
</defs>
</svg>
