<svg width="65" height="64" viewBox="0 0 65 64" fill="none" xmlns="http://www.w3.org/2000/svg">
<path d="M52.5 2H12.5C6.977 2 2.5 6.477 2.5 12V52C2.5 57.523 6.977 62 12.5 62H52.5C58.023 62 62.5 57.523 62.5 52V12C62.5 6.477 58.023 2 52.5 2ZM18.5 26H13.41V30.5H18.5V33.5H13.41V41H10.5V23H18.5V26ZM30.975 41H27.954L25.483 33.5H24.358V41H21.5V23H26.5C29.258 23 31.5 25.355 31.5 28.25C31.5 30.447 30.207 32.334 28.379 33.115L30.975 41ZM42.5 26H37.41V30.5H42.5V33.5H37.41V38H42.5V41H34.5V23H42.5V26ZM54.5 26H49.41V30.5H54.5V33.5H49.41V38H54.5V41H46.5V23H54.5V26Z" fill="#2D1D90"/>
<path d="M26.5004 26H24.3574V30.5H26.5004C27.6824 30.5 28.6434 29.49 28.6434 28.25C28.6434 27.01 27.6824 26 26.5004 26Z" fill="#2D1D90"/>
</svg>
