<svg width="24" height="20" viewBox="0 0 24 20" fill="none" xmlns="http://www.w3.org/2000/svg">
<path d="M23.6183 2.34045C23.085 2.5769 22.5315 2.76345 21.9635 2.8985C22.5894 2.30376 23.0599 1.55986 23.3254 0.729544C23.4012 0.492502 23.1437 0.287525 22.9297 0.414443C22.1395 0.883144 21.2884 1.23476 20.3998 1.45963C20.3483 1.47268 20.2951 1.47929 20.2417 1.47929C20.0799 1.47929 19.9225 1.4192 19.7988 1.31012C18.8534 0.476937 17.6375 0.0180664 16.3752 0.0180664C15.829 0.0180664 15.2775 0.103205 14.736 0.271141C13.0582 0.791511 11.7637 2.17544 11.3576 3.88289C11.2052 4.52333 11.164 5.16436 11.2349 5.78812C11.243 5.8598 11.2091 5.90983 11.1882 5.93329C11.1515 5.97443 11.0995 5.99801 11.0455 5.99801C11.0395 5.99801 11.0333 5.99772 11.0271 5.99713C7.35466 5.65594 4.04298 3.88663 1.70211 1.01521C1.58274 0.86875 1.35383 0.886714 1.25868 1.04991C0.800282 1.83634 0.558032 2.73583 0.558032 3.65111C0.558032 5.05382 1.12158 6.37572 2.10047 7.3394C1.68882 7.24179 1.2904 7.08808 0.920295 6.88251C0.741241 6.78304 0.520934 6.91089 0.518418 7.1157C0.492788 9.19951 1.71281 11.0537 3.54046 11.8887C3.50365 11.8895 3.46684 11.8899 3.42998 11.8899C3.14028 11.8899 2.84694 11.862 2.55823 11.8068C2.35659 11.7683 2.18719 11.9596 2.2498 12.1551C2.84302 14.0071 4.43766 15.3723 6.34593 15.6822C4.76218 16.7454 2.91786 17.3062 0.998295 17.3062L0.399867 17.3058C0.215488 17.3058 0.0595472 17.426 0.0125601 17.6046C-0.0337248 17.7805 0.0515308 17.966 0.208759 18.0575C2.3718 19.3163 4.83907 19.9816 7.34489 19.9816C9.53831 19.9816 11.5901 19.5463 13.4432 18.6879C15.1421 17.901 16.6433 16.776 17.9052 15.3444C19.0808 14.0107 20 12.4711 20.6374 10.7685C21.2449 9.14544 21.5661 7.41365 21.5661 5.76027V5.68151C21.566 5.41603 21.6861 5.16623 21.8956 4.99618C22.6905 4.35077 23.3827 3.59102 23.9529 2.73805C24.1035 2.51283 23.866 2.23056 23.6183 2.34045Z" fill="#76A9EA"/>
</svg>
