<svg width="14" height="24" viewBox="0 0 14 24" fill="none" xmlns="http://www.w3.org/2000/svg">
<path d="M1.32562 12.7824H3.95638V23.6129C3.95638 23.8268 4.12963 24 4.34348 24H8.80405C9.0179 24 9.19115 23.8268 9.19115 23.6129V12.8334H12.2155C12.4121 12.8334 12.5776 12.6859 12.6 12.4905L13.0594 8.50331C13.072 8.39363 13.0372 8.28375 12.9638 8.20144C12.8904 8.11908 12.7852 8.07192 12.6749 8.07192H9.19134V5.5725C9.19134 4.81908 9.59699 4.437 10.3972 4.437C10.5113 4.437 12.6749 4.437 12.6749 4.437C12.8887 4.437 13.062 4.26366 13.062 4.04991V0.389953C13.062 0.176109 12.8887 0.00285938 12.6749 0.00285938H9.53591C9.51379 0.00178125 9.46462 0 9.39215 0C8.84751 0 6.95437 0.106922 5.45891 1.48266C3.80198 3.00722 4.03232 4.83258 4.08735 5.14908V8.07183H1.32557C1.11173 8.07183 0.938477 8.24508 0.938477 8.45892V12.3953C0.938523 12.609 1.11177 12.7824 1.32562 12.7824Z" fill="#385C8E"/>
</svg>
